<?xml version="1.0" encoding="utf-8"?>
<!-- Svg Vector Icons : http://www.onlinewebfonts.com/icon -->
<!DOCTYPE svg PUBLIC "-//W3C//DTD SVG 1.1//EN" "http://www.w3.org/Graphics/SVG/1.1/DTD/svg11.dtd">
<svg version="1.1" xmlns="http://www.w3.org/2000/svg" xmlns:xlink="http://www.w3.org/1999/xlink" x="0px" y="0px" viewBox="0 0 1000 1000" enable-background="new 0 0 1000 1000" xml:space="preserve">
<metadata> Svg Vector Icons : http://www.onlinewebfonts.com/icon </metadata>
<g><path d="M500,10c66.6,0,130.1,12.9,190.5,38.8c60.4,25.9,112.5,60.7,156.3,104.4c43.7,43.7,78.5,95.8,104.4,156.3C977.1,369.9,990,433.4,990,500c0,66.6-12.9,130.1-38.8,190.5c-25.9,60.4-60.7,112.5-104.4,156.3S751,925.3,690.5,951.2C630.1,977.1,566.6,990,500,990c-66.6,0-130.1-12.9-190.5-38.8c-60.4-25.9-112.5-60.7-156.3-104.4C109.5,803.1,74.7,751,48.8,690.5C22.9,630.1,10,566.6,10,500c0-66.6,12.9-130.1,38.8-190.5s60.7-112.5,104.4-156.3c43.7-43.7,95.8-78.5,156.3-104.4C369.9,22.9,433.4,10,500,10z M500,99.1c-54.3,0-106.2,10.6-155.7,31.8c-49.5,21.2-92.2,49.7-127.9,85.4c-35.7,35.7-64.2,78.4-85.4,127.9C109.7,393.8,99.1,445.7,99.1,500c0,54.3,10.6,106.2,31.8,155.7c21.2,49.5,49.7,92.1,85.4,127.9c35.7,35.7,78.4,64.2,127.9,85.4c49.5,21.2,101.4,31.8,155.7,31.8c54.3,0,106.2-10.6,155.7-31.8c49.5-21.2,92.1-49.7,127.9-85.4c35.7-35.7,64.2-78.4,85.4-127.9c21.2-49.5,31.8-101.4,31.8-155.7c0-54.3-10.6-106.2-31.8-155.7c-21.2-49.5-49.7-92.1-85.4-127.9c-35.7-35.7-78.3-64.2-127.9-85.4C606.2,109.7,554.3,99.1,500,99.1L500,99.1z M500,277.3c12.3,0,22.8,4.3,31.5,13c8.7,8.7,13,19.2,13,31.5v133.6h133.6c12.3,0,22.8,4.3,31.5,13c8.7,8.7,13,19.2,13,31.5c0,12.3-4.3,22.8-13,31.5c-8.7,8.7-19.2,13-31.5,13H544.5v133.6c0,12.3-4.3,22.8-13,31.5c-8.7,8.7-19.2,13-31.5,13c-12.3,0-22.8-4.3-31.5-13c-8.7-8.7-13-19.2-13-31.5V544.5H321.8c-12.3,0-22.8-4.3-31.5-13c-8.7-8.7-13-19.2-13-31.5c0-12.3,4.3-22.8,13-31.5c8.7-8.7,19.2-13,31.5-13h133.6V321.8c0-12.3,4.3-22.8,13-31.5C477.2,281.6,487.7,277.3,500,277.3z"/></g>
</svg>